<?xml version="1.0" encoding="UTF-8" standalone="no"?>
<!-- Created with Inkscape (http://www.inkscape.org/) -->

<svg
   xmlns:dc="http://purl.org/dc/elements/1.1/"
   xmlns:cc="http://creativecommons.org/ns#"
   xmlns:rdf="http://www.w3.org/1999/02/22-rdf-syntax-ns#"
   xmlns:svg="http://www.w3.org/2000/svg"
   xmlns="http://www.w3.org/2000/svg"
   xmlns:sodipodi="http://sodipodi.sourceforge.net/DTD/sodipodi-0.dtd"
   xmlns:inkscape="http://www.inkscape.org/namespaces/inkscape"
   width="111.19922mm"
   height="110.9796mm"
   viewBox="0 0 394.01298 393.2348"
   id="svg2"
   version="1.1"
   inkscape:version="0.91 r13725"
   sodipodi:docname="gear.svg">
  <defs
     id="defs4" />
  <sodipodi:namedview
     id="base"
     pagecolor="#ffffff"
     bordercolor="#666666"
     borderopacity="1.0"
     inkscape:pageopacity="0.0"
     inkscape:pageshadow="2"
     inkscape:zoom="0.98994949"
     inkscape:cx="222.09464"
     inkscape:cy="77.986354"
     inkscape:document-units="px"
     inkscape:current-layer="layer1"
     showgrid="false"
     fit-margin-top="0"
     fit-margin-left="0"
     fit-margin-right="0"
     fit-margin-bottom="0"
     inkscape:window-width="1600"
     inkscape:window-height="836"
     inkscape:window-x="0"
     inkscape:window-y="27"
     inkscape:window-maximized="1" />
  <metadata
     id="metadata7">
    <rdf:RDF>
      <cc:Work
         rdf:about="">
        <dc:format>image/svg+xml</dc:format>
        <dc:type
           rdf:resource="http://purl.org/dc/dcmitype/StillImage" />
        <dc:title />
      </cc:Work>
    </rdf:RDF>
  </metadata>
  <g
     inkscape:label="Ebene 1"
     inkscape:groupmode="layer"
     id="layer1"
     transform="translate(-168.35796,-100.48116)">
    <path
       style="fill:#ffffff;fill-opacity:1"
       d="m 293.74495,491.64406 c -11.12287,-3.40271 -22.69828,-8.62529 -29.78798,-18.19305 -2.05518,-9.95476 0.80253,-20.38415 1.62074,-30.44001 1.32929,-10.00297 3.09162,-19.93964 4.7838,-29.8855 -3.44081,-8.77379 -9.80141,-16.3694 -18.75359,-19.87857 -3.77054,-2.74144 -8.40563,0.15678 -12.61016,0.24635 -15.72653,2.2128 -31.49771,5.62319 -47.41677,5.3536 -8.62955,-2.00295 -12.18549,-11.64792 -16.45988,-18.46188 -4.53604,-9.39008 -8.13968,-20.15741 -6.09283,-30.64059 7.06908,-9.22389 17.51744,-15.22686 26.42582,-22.56903 7.35669,-6.74945 18.34491,-10.90079 22.25923,-20.60999 2.95763,-8.04716 1.3326,-17.28415 -2.00312,-24.77057 -15.16302,-11.50668 -31.1584,-22.05959 -45.09695,-35.05982 -5.3285,-9.03281 0.0752,-20.51829 3.00133,-29.6926 3.9803,-8.33081 8.23436,-19.05215 17.87876,-21.87068 18.92015,-0.68853 37.38555,5.26458 56.2122,5.87752 10.38492,-2.0664 19.96663,-10.73685 22.09822,-21.18647 -2.26386,-18.25642 -6.0559,-36.40941 -6.88966,-54.82429 1.16252,-9.12426 10.9654,-13.43981 17.94414,-17.78109 10.20337,-5.37301 22.98384,-9.090342 34.14268,-4.85965 13.90908,15.33528 25.59433,32.52125 37.78389,49.22776 8.17941,0 16.35881,0 24.53822,0 12.27607,-16.65155 24.10257,-33.80031 38.02917,-49.11357 7.56663,-4.132712 17.19342,-0.99743 25.11783,0.97768 10.0454,3.35204 19.64355,9.13287 26.08791,17.65798 2.13173,9.00637 -0.96201,18.43759 -1.59023,27.54147 -0.9703,11.30386 -4.70792,22.50813 -3.69654,33.88993 2.52504,10.54531 12.9983,14.98406 21.8554,19.22397 17.99414,-2.85653 36.0016,-5.90949 54.18942,-7.17746 9.22919,2.22827 13.93556,11.96016 18.1657,19.64466 3.8939,9.02524 7.81142,19.0987 6.26518,29.04884 -4.81258,8.24948 -13.94315,12.96151 -20.97866,19.1833 -8.61556,7.34407 -19.15709,12.58091 -26.62394,21.14465 -4.93707,9.33743 -2.23522,20.65083 2.12318,29.50862 14.68873,11.33168 30.32538,21.63846 43.49324,34.76591 5.66654,7.2554 0.6142,16.85275 -1.22276,24.67947 -4.01382,9.95779 -8.97272,21.12232 -18.94708,26.29686 -12.43493,0.6844 -24.87678,-2.39306 -37.24443,-3.69424 -9.61377,-0.45044 -20.61793,-6.2219 -29.18685,0.57598 -8.23885,6.56171 -14.06121,17.43236 -11.27054,28.12122 1.90466,15.81983 5.39739,31.59202 5.29577,47.56418 -5.20095,9.9581 -16.76535,14.99772 -26.67878,19.22214 -8.92352,1.65153 -21.32549,6.91347 -27.86193,-2.11214 -12.85178,-14.46982 -23.84133,-30.43939 -35.18305,-46.08738 -8.19278,-0.01 -16.38555,-0.0199 -24.57833,-0.0298 -12.11337,16.52402 -23.63032,33.62251 -37.62952,48.62334 -6.24737,4.45988 -14.68856,2.06834 -21.50825,0.56295 z M 381.9026,350.25613 c 20.87715,-7.09189 37.43799,-26.60756 38.5088,-48.99496 1.88157,-18.47429 -6.48307,-37.13862 -21.22858,-48.33957 -20.61388,-16.43642 -53.79042,-15.13832 -72.22889,4.11605 -12.39828,10.70202 -18.09149,27.43953 -17.43116,43.50644 1.63113,28.44473 27.99667,54.5224 57.19629,51.64006 5.09134,-0.22894 10.25641,-0.52993 15.18354,-1.92802 z"
       id="path4147"
       inkscape:connector-curvature="0" />
  </g>
</svg>
