<?xml version="1.0" encoding="UTF-8" standalone="no"?>
<svg
   xmlns:dc="http://purl.org/dc/elements/1.1/"
   xmlns:cc="http://creativecommons.org/ns#"
   xmlns:rdf="http://www.w3.org/1999/02/22-rdf-syntax-ns#"
   xmlns:svg="http://www.w3.org/2000/svg"
   xmlns="http://www.w3.org/2000/svg"
   version="1.1"
   id="svg2"
   viewBox="0 0 540.40277 457.82873"
   height="129.20944mm"
   width="152.51367mm">
  <defs
     id="defs4" />
  <metadata
     id="metadata7">
    <rdf:RDF>
      <cc:Work
         rdf:about="">
        <dc:format>image/svg+xml</dc:format>
        <dc:type
           rdf:resource="http://purl.org/dc/dcmitype/StillImage" />
        <dc:title></dc:title>
      </cc:Work>
    </rdf:RDF>
  </metadata>
  <g
     transform="translate(-11.743829,-56.647919)"
     id="layer1">
    <path
       id="path4147"
       d="m 56.044052,513.80416 c -14.93756,-2.49814 -28.15756,-14.50571 -29.592,-29.99821 -4.66059,-26.8948 -10.29262,-53.64497 -14.40482,-80.61733 -2.0788503,-15.64887 6.71536,-31.29503 20.54488,-38.60344 12.06963,-8.84008 25.14881,-16.29765 37.00784,-25.34321 15.01171,-9.15243 29.2984,-19.45129 43.887688,-29.17359 14.98754,-3.01081 31.0343,-0.69355 46.39136,-0.87386 12.2925,0.12533 -7.40121,10.89389 -11.44554,14.59088 -13.21583,10.72977 -27.22,20.46479 -40.40553,31.24654 -7.46973,7.68533 -26.603638,16.10671 -27.245568,23.62174 31.051848,0.40442 62.215058,-0.69018 93.261688,1.13707 10.01287,8.35893 9.90637,23.07133 15.86113,34.01252 5.99904,9.11204 4.40244,27.2765 15.92266,30.14678 52.27875,-0.3698 104.57441,-0.0545 156.85971,-0.1593 7.03652,-16.09044 11.88486,-32.95972 18.56133,-49.20745 -0.28399,-15.71305 16.71551,-17.03121 28.46445,-15.6803 25.44052,-0.52945 50.924,0.72019 76.33072,-1.11225 -22.40272,-16.92806 -44.60954,-34.09419 -66.82323,-51.25487 -3.78358,-5.36513 -23.49927,-11.94003 -16.20733,-17.79448 15.24133,0.67439 30.5406,-0.63918 45.78867,0.40421 16.90866,10.8448 33.34823,22.5327 50.27137,33.2951 8.8289,7.53877 19.58638,12.02147 28.39584,19.49799 13.3043,7.12427 25.30222,19.76292 24.65199,35.83887 -0.79643,17.52429 -5.90965,34.68454 -8.03908,51.97466 -4.93563,16.43504 -3.34112,34.99826 -12.52341,50.04248 -8.61291,12.06425 -24.20725,15.46542 -38.2187,14.07293 -143.85167,0.84973 -287.71079,0.75378 -431.561988,0.0611 -1.91151,-0.035 -3.82291,-0.0761 -5.73413,-0.12458 z"
       style="fill:#ffffff;fill-opacity:1" />
    <path
       id="path4153"
       d="m 141.42857,186.64791 140,-129.999991 140,129.999991 -90,0 0,140 -100,0 0,-140 z"
       style="fill:#ffffff;fill-opacity:1;fill-rule:evenodd;stroke:none;stroke-width:1px;stroke-linecap:butt;stroke-linejoin:miter;stroke-opacity:1" />
  </g>
</svg>
