<?xml version="1.0" encoding="UTF-8" standalone="no"?>
<!-- Created with Inkscape (http://www.inkscape.org/) -->

<svg
   xmlns:dc="http://purl.org/dc/elements/1.1/"
   xmlns:cc="http://creativecommons.org/ns#"
   xmlns:rdf="http://www.w3.org/1999/02/22-rdf-syntax-ns#"
   xmlns:svg="http://www.w3.org/2000/svg"
   xmlns="http://www.w3.org/2000/svg"
   xmlns:sodipodi="http://sodipodi.sourceforge.net/DTD/sodipodi-0.dtd"
   xmlns:inkscape="http://www.inkscape.org/namespaces/inkscape"
   width="40mm"
   height="18mm"
   viewBox="0 0 141.73228 63.779527"
   id="svg2"
   version="1.1"
   inkscape:version="0.91 r13725"
   sodipodi:docname="VincentVanGoghSignature.svg">
  <defs
     id="defs4" />
  <sodipodi:namedview
     id="base"
     pagecolor="#ffffff"
     bordercolor="#666666"
     borderopacity="1.0"
     inkscape:pageopacity="0.0"
     inkscape:pageshadow="2"
     inkscape:zoom="3.959798"
     inkscape:cx="115.0036"
     inkscape:cy="45.692483"
     inkscape:document-units="px"
     inkscape:current-layer="layer1"
     showgrid="false"
     fit-margin-top="0"
     fit-margin-left="0"
     fit-margin-right="0"
     fit-margin-bottom="0"
     inkscape:window-width="2560"
     inkscape:window-height="1403"
     inkscape:window-x="1600"
     inkscape:window-y="0"
     inkscape:window-maximized="1" />
  <metadata
     id="metadata7">
    <rdf:RDF>
      <cc:Work
         rdf:about="">
        <dc:format>image/svg+xml</dc:format>
        <dc:type
           rdf:resource="http://purl.org/dc/dcmitype/StillImage" />
        <dc:title />
      </cc:Work>
    </rdf:RDF>
  </metadata>
  <g
     inkscape:label="Ebene 1"
     inkscape:groupmode="layer"
     id="layer1"
     transform="translate(-109.82603,-154.82136)">
    <path
       style="fill:#646464;fill-opacity:1"
       d="m 228.9497,199.23197 c -1.03099,-1.14792 -1.20063,-1.64474 -1.74245,-5.1035 -0.34166,-2.18122 -0.49785,-2.62025 -1.14633,-3.2228 l -0.75074,-0.69761 -1.24704,0.76825 c -1.20682,0.74345 -1.24137,0.80662 -1.07073,1.95759 0.23508,1.58569 0.31096,5.96955 0.11329,6.5398 -0.0866,0.24969 -0.38191,0.44601 -0.65627,0.43625 -0.27439,-0.01 -0.71207,0.29201 -0.97263,0.67056 -0.83041,1.20645 -1.17484,0.50924 -1.1582,-2.34452 0.0169,-2.90627 -0.70526,-7.48112 -1.34966,-8.5495 -0.24346,-0.40371 -1.12503,-1.05197 -1.95902,-1.44062 -0.83401,-0.38864 -1.67206,-0.89205 -1.86238,-1.11872 -0.58384,-0.6954 -0.22427,-1.36948 0.81245,-1.52319 1.00907,-0.14961 3.68479,0.24513 3.73117,0.55043 0.0154,0.10133 0.46316,0.56312 0.99505,1.02625 0.91222,0.79433 1.07602,0.82895 2.88902,0.61033 2.89737,-0.34935 3.37119,-0.22666 4.07583,1.05576 0.59579,1.08433 1.01171,2.33802 1.60384,4.83464 0.55972,2.35995 1.03403,3.43753 1.88493,4.2823 1.02263,1.01532 0.87243,1.72179 -0.43617,2.05144 -0.73246,0.18459 -0.98691,0.071 -1.75399,-0.78314 z m -46.74723,6.14044 c -1.92806,-0.66785 -2.78944,-2.63228 -3.86025,-8.80358 -0.57421,-3.30969 -0.68336,-3.63644 -1.52813,-4.57703 -1.14749,-1.27762 -2.08182,-1.40403 -3.10482,-0.42004 -0.91745,0.88247 -0.9349,1.08533 -0.4598,5.34386 0.32099,2.87715 0.30584,3.43591 -0.10781,3.99366 -0.54347,0.73268 -1.48881,0.73654 -1.96553,0.008 -0.16124,-0.24642 -0.60113,-2.47944 -0.97753,-4.96228 l -0.68438,-4.51422 -1.43931,-1.41533 c -0.79161,-0.7784 -1.63699,-1.38599 -1.87859,-1.35018 -0.24161,0.0358 -1.09942,0.36796 -1.90628,0.73811 -1.71787,0.78804 -2.28782,0.73923 -2.42826,-0.20795 -0.21749,-1.467 1.58164,-2.99301 3.94111,-3.34283 1.08938,-0.16145 3.5895,0.94211 4.31732,1.90578 0.28234,0.37383 0.94905,1.06344 1.48153,1.53249 0.90543,0.79749 1.01037,0.82145 1.61882,0.36979 0.86752,-0.64401 3.6148,-0.82328 5.1434,-0.33562 2.26289,0.72187 2.51196,1.20325 3.13655,6.06153 0.32685,2.54226 0.75996,4.79484 1.07019,5.56564 0.55734,1.38483 1.42347,2.03711 2.24173,1.68827 0.50898,-0.21695 1.48309,-1.42179 2.029,-2.50954 0.30816,-0.61402 0.96172,-0.5617 1.05756,0.0846 0.0301,0.20397 -0.16585,1.13266 -0.43575,2.06375 -0.37959,1.30938 -0.71881,1.85533 -1.49742,2.40995 -1.21017,0.86198 -2.53441,1.09887 -3.76335,0.67318 z m 59.26339,-8.86514 c -0.96667,-0.1298 -2.24137,-0.44926 -2.83269,-0.70989 -0.5913,-0.26064 -1.1575,-0.46216 -1.25819,-0.44781 -0.31158,0.0442 -1.71186,-1.83366 -2.31384,-3.10323 -0.3148,-0.66391 -0.65454,-1.752 -0.75498,-2.41802 -0.10065,-0.66596 -0.44557,-1.77759 -0.76693,-2.47017 -0.86872,-1.8723 -2.56119,-6.33473 -2.65428,-6.99836 -0.11977,-0.8542 0.37363,-1.53888 1.37322,-1.9053 1.00007,-0.36662 0.86481,-0.52946 2.01414,2.42486 0.4356,1.11969 0.94333,2.17487 1.12826,2.34482 0.18495,0.16996 0.92159,0.22446 1.63698,0.12112 2.2007,-0.31768 5.50498,0.18139 6.60629,0.99832 0.94222,0.6989 0.95934,0.7409 0.55133,1.35243 -0.57646,0.86396 -2.76456,1.12268 -5.16605,0.61081 -1.86821,-0.39821 -2.7018,-0.25299 -2.59721,0.45242 0.10568,0.71268 1.89182,4.56546 2.33405,5.03461 0.67403,0.71501 3.47188,1.92164 4.8194,2.07844 0.66615,0.0775 1.83904,-0.0294 2.60643,-0.23787 1.82535,-0.4956 2.35822,-0.2728 1.87075,0.78208 -0.707,1.53006 -3.70233,2.47937 -6.59669,2.09069 z m -45.44169,4.71367 c -5.3342,-1.72005 -6.61704,-3.09787 -7.67417,-8.24228 -0.93615,-4.55565 -0.25502,-7.26052 2.1718,-8.62433 1.30532,-0.73357 2.24957,-0.81226 3.39507,-0.28293 0.44528,0.20576 0.93299,0.35582 1.08383,0.33345 0.55073,-0.0816 0.69258,0.4884 0.37817,1.51981 -0.31826,1.04402 -0.34165,1.05867 -2.1086,1.32065 -1.68752,0.25018 -1.80348,0.31359 -2.08732,1.14209 -0.16529,0.48246 -0.22504,1.87619 -0.13279,3.09716 0.34208,4.52737 1.86527,6.30576 6.05059,7.06439 1.26986,0.23018 2.5187,0.38737 2.77521,0.34935 0.25651,-0.038 0.56726,0.10969 0.69055,0.32827 0.12333,0.21858 0.52668,0.35256 0.89644,0.29775 1.19098,-0.17658 0.79052,1.32762 -0.55388,2.08052 -1.17674,0.65899 -1.80356,0.60972 -4.8849,-0.38387 z m 13.19512,-1.48206 c -2.52745,-0.56857 -5.13635,-2.12161 -5.80558,-3.45594 -0.65181,-1.29964 -1.21231,-4.59125 -1.04835,-6.15665 0.15415,-1.47193 1.12079,-4.81131 1.63048,-5.63274 1.06188,-1.71135 3.51589,-2.45211 5.22911,-1.57841 1.13022,0.57636 2.6621,2.88959 2.87774,4.34548 0.12787,0.86304 -0.037,1.31192 -0.94466,2.57221 -1.22272,1.69781 -1.52562,1.84501 -2.36928,1.15146 -0.64147,-0.52733 -0.61508,-1.35498 0.0464,-1.45305 0.23305,-0.0345 0.57768,-0.39601 0.76585,-0.80326 0.31697,-0.68592 0.28336,-0.82889 -0.45644,-1.94201 -0.71192,-1.07113 -0.89929,-1.18667 -1.72595,-1.06409 -1.24,0.18382 -1.98319,1.42139 -2.38742,3.97549 -0.37389,2.3624 -0.38479,2.26233 0.43852,4.03011 0.69267,1.48727 2.46432,3.17207 3.79955,3.61329 1.13264,0.37424 2.92864,0.31814 4.0709,-0.12718 2.36284,-0.92117 3.33643,-0.0125 1.74167,1.62556 -1.2484,1.28228 -2.98035,1.5481 -5.86252,0.89969 z m -84.56613,9.45252 c -2.45863,-0.8717 -4.37468,-2.0989 -5.46273,-3.49876 -0.38516,-0.49557 -1.07911,-1.36628 -1.54208,-1.93492 -0.78147,-0.95985 -0.82663,-1.11767 -0.63055,-2.20331 0.11617,-0.64318 0.0819,-2.57139 -0.0761,-4.2849 -0.31189,-3.38236 -0.74139,-9.53447 -0.79349,-11.36631 -0.2481,-8.72676 -1.0322,-12.65305 -2.91456,-14.59435 -0.83216,-0.85822 -1.10672,-1.3751 -1.20326,-2.26512 -0.14456,-1.33265 0.0643,-1.66107 1.61275,-2.5373 1.46475,-0.82877 2.83983,-1.02125 3.63027,-0.50805 1.14089,0.74069 3.1681,3.31546 3.29749,4.18822 0.0687,0.46382 -0.11499,1.36063 -0.40835,1.99287 -0.29337,0.63224 -0.564,1.73547 -0.6014,2.45157 -0.0374,0.71612 0.85372,7.27645 1.9803,14.5785 l 2.04834,13.27649 1.86508,1.28643 c 1.88977,1.30346 2.68162,1.55757 4.8059,1.54221 1.0288,-0.007 1.36939,-0.17716 2.67355,-1.33164 1.73184,-1.53316 1.85272,-1.70903 3.43637,-5.00038 1.30692,-2.71619 2.45405,-6.5891 2.75716,-9.30883 0.24298,-2.1797 -0.29385,-8.13874 -0.72741,-8.07446 -0.16531,0.0244 -0.38312,-0.23389 -0.48404,-0.57421 -0.15318,-0.51672 -0.46383,-0.63216 -1.88297,-0.69991 -1.45362,-0.0694 -1.94374,-0.25994 -3.38784,-1.31721 -1.46728,-1.07423 -2.31243,-2.09796 -3.69598,-4.47695 -1.69983,-2.92281 -2.56004,-6.63859 -1.97815,-8.54494 0.5974,-1.95714 1.57499,-2.49793 3.97622,-2.19955 1.73634,0.21577 4.66043,2.62923 5.8658,4.84149 1.39561,2.56136 1.89932,3.64745 2.20834,4.76153 0.15295,0.55137 0.48135,1.30435 0.72977,1.67327 0.39666,0.58907 0.65047,0.6518 2.08395,0.51508 1.28485,-0.12255 1.78627,-0.30376 2.35587,-0.85169 0.39798,-0.3828 0.85999,-0.71624 1.02667,-0.74094 0.42501,-0.063 1.34503,-2.95129 1.08622,-3.41008 -0.30861,-0.54711 0.50995,-0.89899 1.09016,-0.46862 0.61586,0.45683 0.66381,0.77844 0.35375,2.37319 -0.53369,2.74539 -2.99468,6.13297 -5.13014,7.06167 -0.5532,0.24058 -1.11213,0.61375 -1.24204,0.82926 -0.12992,0.21551 -0.17572,1.35182 -0.10178,2.52513 0.20764,3.29549 0.17435,5.45175 -0.10677,6.90622 -0.14138,0.73151 -0.23582,1.48589 -0.20988,1.67637 0.0263,0.19042 -0.30068,1.48561 -0.72587,2.87809 -0.42518,1.39248 -0.76254,2.60256 -0.74972,2.68905 0.0138,0.0864 -0.35034,1.00161 -0.807,2.03352 -1.12189,2.53509 -4.57315,7.54143 -6.22334,9.02755 -1.22376,1.10202 -1.52868,1.2388 -3.44589,1.54564 -1.93224,0.30926 -2.2863,0.2718 -4.35267,-0.46087 z m 10.98837,-35.50893 c 0.33671,-0.58073 0.0416,-1.40584 -1.17025,-3.27169 -0.51452,-0.79218 -1.19395,-1.88342 -1.50986,-2.42495 -0.5348,-0.91674 -2.10041,-1.79797 -2.42262,-1.36361 -0.56145,0.75692 1.28521,4.74324 3.04331,6.56951 1.17193,1.21738 1.58152,1.31498 2.05942,0.49074 z m 21.93713,29.1958 c -0.69691,-0.51696 -0.72592,-0.64062 -1.26046,-5.37311 -0.30092,-2.66418 -0.57485,-5.56594 -0.6087,-6.4484 -0.0398,-1.05002 -0.17958,-1.65526 -0.4033,-1.75149 -0.49664,-0.21374 -0.54929,-1.05712 -0.13276,-2.12612 0.49684,-1.27513 0.87017,-1.41545 2.41867,-0.90914 1.70657,0.55796 1.97574,1.20161 1.35906,3.24987 -0.4939,1.64053 -0.61579,4.35911 -0.35725,7.96828 0.18539,2.58639 0.49584,2.93646 2.26065,2.54856 1.57564,-0.34632 1.82967,0.10219 0.91027,1.60704 -0.54385,0.89017 -0.88055,1.12108 -2.06143,1.41381 -1.19413,0.29598 -1.52123,0.2684 -2.12476,-0.1793 z m -1.22593,-26.85201 c -0.31632,-0.12792 -1.15686,-0.13318 -1.86788,-0.0117 -1.97188,0.33704 -2.21788,0.23059 -2.40639,-1.04097 -0.0909,-0.61289 -0.0417,-1.2516 0.10929,-1.41938 0.15097,-0.16778 1.29439,-0.54811 2.54094,-0.84518 l 2.26643,-0.5401 0.52536,1.12096 c 0.88382,1.88576 0.27224,3.31877 -1.16775,2.73633 z"
       id="path4147"
       inkscape:connector-curvature="0" />
  </g>
</svg>
